<?xml version="1.0" encoding="UTF-8" standalone="no"?>
<!-- Created with Inkscape (http://www.inkscape.org/) -->

<svg
   xmlns:dc="http://purl.org/dc/elements/1.1/"
   xmlns:cc="http://creativecommons.org/ns#"
   xmlns:rdf="http://www.w3.org/1999/02/22-rdf-syntax-ns#"
   xmlns:svg="http://www.w3.org/2000/svg"
   xmlns="http://www.w3.org/2000/svg"
   xmlns:sodipodi="http://sodipodi.sourceforge.net/DTD/sodipodi-0.dtd"
   xmlns:inkscape="http://www.inkscape.org/namespaces/inkscape"
   width="200mm"
   height="200mm"
   viewBox="0 0 200 200"
   version="1.1"
   id="svg8"
   inkscape:version="0.92.4 (5da689c313, 2019-01-14)"
   sodipodi:docname="logo.svg">
  <defs
     id="defs2" />
  <sodipodi:namedview
     id="base"
     pagecolor="#ffffff"
     bordercolor="#666666"
     borderopacity="1.0"
     inkscape:pageopacity="0.0"
     inkscape:pageshadow="2"
     inkscape:zoom="0.35"
     inkscape:cx="-145.33183"
     inkscape:cy="560"
     inkscape:document-units="mm"
     inkscape:current-layer="layer1"
     showgrid="false"
     inkscape:window-width="1920"
     inkscape:window-height="1017"
     inkscape:window-x="-8"
     inkscape:window-y="-8"
     inkscape:window-maximized="1" />
  <metadata
     id="metadata5">
    <rdf:RDF>
      <cc:Work
         rdf:about="">
        <dc:format>image/svg+xml</dc:format>
        <dc:type
           rdf:resource="http://purl.org/dc/dcmitype/StillImage" />
        <dc:title />
      </cc:Work>
    </rdf:RDF>
  </metadata>
  <g
     inkscape:label="Layer 1"
     inkscape:groupmode="layer"
     id="layer1"
     transform="translate(0,-97)">
    <g
       id="g873"
       transform="matrix(0.71223952,0,0,0.65199986,9.5732802,112.49151)"
       style="fill:#d3bc5f"
       inkscape:export-xdpi="30.250044"
       inkscape:export-ydpi="30.250044">
      <g
         id="g817"
         style="fill:#d3bc5f">
        <path
           id="path815"
           d="m 226.657,97.909 c -0.033,-0.462 -0.12,-0.908 -0.267,-1.354 -0.065,-0.179 -0.114,-0.359 -0.196,-0.544 -0.261,-0.571 -0.593,-1.115 -1.055,-1.577 v 0 0 c 0,-0.005 -0.005,-0.011 -0.005,-0.011 L 132.3,1.594 C 131.832,1.126 131.277,0.794 130.701,0.528 130.543,0.457 130.386,0.414 130.222,0.359 129.76,0.196 129.286,0.098 128.797,0.071 128.683,0.06 128.574,0 128.46,0 H 67.113 C 47.108,0 30.839,16.274 30.839,36.279 v 185.015 c 0,20.005 16.274,36.273 36.273,36.273 h 123.342 c 19.999,0 36.273,-16.268 36.273,-36.273 V 98.273 c 0,-0.125 -0.065,-0.239 -0.07,-0.364 z m -92.769,-79.34 74.27,74.265 h -48.875 c -14.006,0 -25.395,-11.389 -25.395,-25.395 0,0 0,-48.87 0,-48.87 z m 56.566,228.114 H 67.113 c -14.006,0 -25.395,-11.395 -25.395,-25.395 V 36.279 c 0,-14.006 11.395,-25.4 25.395,-25.4 H 123.01 V 67.44 c 0,20.005 16.274,36.273 36.273,36.273 h 56.566 v 117.576 c 0,14.005 -11.389,25.394 -25.395,25.394 z"
           style="fill:#d3bc5f"
           inkscape:connector-curvature="0" />
      </g>
      <g
         id="g819"
         style="fill:#d3bc5f" />
      <g
         id="g821"
         style="fill:#d3bc5f" />
      <g
         id="g823"
         style="fill:#d3bc5f" />
      <g
         id="g825"
         style="fill:#d3bc5f" />
      <g
         id="g827"
         style="fill:#d3bc5f" />
      <g
         id="g829"
         style="fill:#d3bc5f" />
      <g
         id="g831"
         style="fill:#d3bc5f" />
      <g
         id="g833"
         style="fill:#d3bc5f" />
      <g
         id="g835"
         style="fill:#d3bc5f" />
      <g
         id="g837"
         style="fill:#d3bc5f" />
      <g
         id="g839"
         style="fill:#d3bc5f" />
      <g
         id="g841"
         style="fill:#d3bc5f" />
      <g
         id="g843"
         style="fill:#d3bc5f" />
      <g
         id="g845"
         style="fill:#d3bc5f" />
      <g
         id="g847"
         style="fill:#d3bc5f" />
    </g>
    <g
       id="g933"
       transform="matrix(0.15657576,0,0,0.17531167,50.846396,180.72704)"
       inkscape:export-xdpi="30.250044"
       inkscape:export-ydpi="30.250044">
      <g
         id="g877">
        <path
           id="path875"
           d="m 278.235,33.267 c -116.7,0 -211.6,95 -211.6,211.7 v 0.7 l -41.9,-63.1 c -4.1,-6.2 -12.5,-7.9 -18.7,-3.8 -6.2,4.1 -7.9,12.5 -3.8,18.7 l 60.8,91.5 c 2.2,3.3 5.7,5.4 9.6,5.9 0.6,0.1 1.1,0.1 1.7,0.1 3.3,0 6.5,-1.2 9,-3.5 l 84.5,-76.1 c 5.5,-5 6,-13.5 1,-19.1 -5,-5.5 -13.5,-6 -19.1,-1 l -56.1,50.7 v -1 c 0,-101.9 82.8,-184.7 184.6,-184.7 101.8,0 184.7,82.8 184.7,184.7 0,101.9 -82.8,184.7 -184.6,184.7 -49.3,0 -95.7,-19.2 -130.5,-54.1 -5.3,-5.3 -13.8,-5.3 -19.1,0 -5.3,5.3 -5.3,13.8 0,19.1 40,40 93.1,62 149.6,62 116.6,0 211.6,-94.9 211.6,-211.7 0,-116.8 -95,-211.7 -211.7,-211.7 z"
           inkscape:connector-curvature="0" />
      </g>
      <g
         id="g879" />
      <g
         id="g881" />
      <g
         id="g883" />
      <g
         id="g885" />
      <g
         id="g887" />
      <g
         id="g889" />
      <g
         id="g891" />
      <g
         id="g893" />
      <g
         id="g895" />
      <g
         id="g897" />
      <g
         id="g899" />
      <g
         id="g901" />
      <g
         id="g903" />
      <g
         id="g905" />
      <g
         id="g907" />
    </g>
    <path
       style="fill:#e2e3db;fill-opacity:1;stroke:#000000;stroke-width:3.77952761;stroke-linecap:butt;stroke-linejoin:miter;stroke-miterlimit:4;stroke-dasharray:none;stroke-opacity:1;paint-order:markers fill stroke;opacity:1"
       d="M 184.38715,656.6198 C 174.23829,651.47343 165.9292,644.48837 160.3034,636.37368 l -8.58911,-12.38897 V 375.90551 127.82632 l 8.58911,-12.38897 c 5.6258,-8.11468 13.93489,-15.09976 24.08375,-20.246124 l 15.49465,-7.857143 h 83.77339 83.77338 v 76.633887 c 0,87.10325 1.26323,94.25905 20.49714,116.10992 6.32311,7.18344 17.28698,16.4542 24.36415,20.6017 22.55263,13.21672 38.26577,15.13279 124.49697,15.18129 l 79.35823,0.0446 -0.7868,152.36989 -0.78683,152.36988 -8.61554,13.93235 c -6.27123,10.14131 -12.77383,16.10465 -23.89769,21.91582 l -15.28214,7.98349 H 383.32892 199.8818 Z m 203.04142,-41.10149 c 19.4567,-4.39223 38.3104,-15.8962 55.37857,-33.7904 26.72655,-28.02 39.58743,-61.4706 39.58743,-102.96526 0,-41.038 -12.76526,-74.66634 -38.78777,-102.18134 -25.49592,-26.95817 -51.00186,-38.07903 -87.61103,-38.19934 -62.49983,-0.20541 -114.5557,50.50097 -124.48045,121.25343 l -1.92595,13.72988 -11.62004,-20.15845 c -8.95264,-15.53106 -13.09162,-20.15846 -18.03072,-20.15846 -13.17878,0 -10.9292,9.74068 10.54268,45.6498 13.25496,22.16731 22.24632,34.3502 25.35155,34.3502 6.9726,0 60.87015,-55.69237 59.69248,-61.68029 -0.52464,-2.66754 -3.18311,-6.25394 -5.90771,-7.96974 -4.1393,-2.60669 -7.78012,-0.32283 -22.14286,13.89006 l -17.18904,17.00965 v -8.94171 c 0,-13.67717 9.78751,-42.10746 19.94593,-57.938 19.37291,-30.19006 46.42633,-46.12404 81.48265,-47.99182 30.36354,-1.61775 49.63265,5.43574 72.37827,26.49416 54.06958,50.05892 54.06958,135.62503 0,185.68395 -22.74098,21.05411 -42.01302,28.11017 -72.37827,26.49974 -25.99297,-1.37854 -40.13433,-7.22452 -62.50216,-25.83809 -10.92544,-9.09168 -14.93186,-10.96217 -18.57142,-8.67043 -8.57342,5.39846 -6.90825,12.41289 5.7127,24.06449 30.37111,28.03846 68.22244,37.53169 111.07516,27.85797 z"
       id="path858"
       inkscape:connector-curvature="0"
       transform="matrix(0.26458333,0,0,0.26458333,0,97)"
       inkscape:export-xdpi="30.250044"
       inkscape:export-ydpi="30.250044" />
    <path
       style="opacity:1;fill:#e2e3db;fill-opacity:1;stroke:#000000;stroke-width:3.77952761;stroke-linecap:butt;stroke-linejoin:miter;stroke-miterlimit:4;stroke-dasharray:none;stroke-opacity:1;paint-order:markers fill stroke"
       d="m 449.47858,284.21529 c -5.94393,-1.39963 -14.49345,-4.45105 -18.99895,-6.78093 -11.56199,-5.97893 -28.38604,-26.53869 -30.27203,-36.99378 -0.87514,-4.85143 -1.21558,-36.42766 -0.75653,-70.16939 l 0.83464,-61.34862 87.14286,79.60637 c 47.92857,43.7835 91.62143,83.92609 97.09524,89.20575 l 9.95238,9.59939 -67.09524,-0.287 c -36.90238,-0.15785 -71.95845,-1.43215 -77.90237,-2.83179 z"
       id="path860"
       inkscape:connector-curvature="0"
       transform="matrix(0.26458333,0,0,0.26458333,0,97)"
       inkscape:export-xdpi="30.250044"
       inkscape:export-ydpi="30.250044" />
  </g>
</svg>
